/* XPM */
static char * konoha_gate_open_green_bg[] = {
"64 64 32 1",
"a c #6EA046",
"b c #2B6216",
"c c #131711",
"d c #0C1311",
"e c #0B1211",
"f c #020C12",
"g c #010810",
"h c #090E11",
"i c #7D3618",
"j c #582B15",
"k c #662F16",
"l c #973F1B",
"m c #0A1010",
"n c #6B4F1D",
"o c #B05322",
"p c #0C1511",
"q c #101411",
"r c #723317",
"s c #512412",
"t c #0F1110",
"u c #1F1C0C",
"v c #265B13",
"w c #286013",
"x c #215411",
"y c #292A11",
"z c #28240F",
"A c #251F0C",
"B c #342D13",
"C c #353214",
"D c #33210F",
"E c #743C19",
"F c #303E14",
"aaaaaaaaaaaaaaaaaaaaaaaaaaaaaaaaaaaaaaaaaaaaaaaaaaaaaaaaaaaaaaaa",
"aaaaaaaaaaaaaaaaaaaaaaaaaaaaaaaaaaaaaaaaaaaaaaaaaaaaaaaaaaaaaaaa",
"aaaaaaaaaaaaaaaaaaaaaaaaaaaaaaaaaaaaaaaaaaaaaaaaaaaaaaaaaaaaaaaa",
"aaaaaaaaaaaaaaaaaaaaaaaaaaaaaaaaaaaaaaaaaaaaaaaaaaaaaaaaaaaaaaaa",
"aaaaaaaaaaaaaaaaaaaaaaaaaaaaaaaaaaaaaaaaaaaaaaaaaaaaaaaaaaaaaaaa",
"aaaaaaaaaaaaaaaaaaaaaaaaaaaaaaaaaaaaaaaaaaaaaaaaaaaaaaaaaaaaaaaa",
"aaaaaaaaaaaaaaaaaaaaaaaaaaaaaaaaaaaaaaaaaaaaaaaaaaaaaaaaaaaaaaaa",
"aaaaaaaaaaaaaaaaaaaaaaaaaaaaaaaaaaaaaaaaaaaaaaaaaaaaaaaaaaaaaaaa",
"aaaaaaaaaaaaaaaaaaaaaaaaaaaaaaaaaaaaaaaaaaaaaaaaaaaaaaaaaaaaaaaa",
"aaaaaaaaaaaaaaaaaaaaaaaaaaaaaaaaaaaaaaaaaaaaaaaaaaaaaaaaaaaaaaaa",
"aaaaaaaaaaaaaaaaaaaaaaaaaaaaaaaaaaaaaaaaaaaaaaaaaaaaaaaaaaaaaaaa",
"aaaaaaaaaaabcdefcfghgghgeghfgffhhffhhhefeghhgfdhffhhaaaaaaaaaaaa",
"aaaaaaaaaaadijklmcnnnnnnoonnonnonnnjnnnononnnocijlijpaaaaaaaaaaa",
"aaaaaaaaaaaqoirrqgnonnnnnnjnjnnkjnnjnnnjnnnosjtrrlistaaaaaaaaaaa",
"aaaaaaaaaaaecqqqqddppmcpmmdppppeqpcpcpqpdpdpedcdqqqpqaaaaaaaaaaa",
"aaaaaaaaaaapjkhsllufdbabavbbwxwxavwxabaxaxdyuziisAojtaaaaaaaaaaa",
"aaaaaaaaaaacslqksiutBghaxbaaaaaaavaxaaxaafuACujlrsortaaaaaaaaaaa",
"aaaaaaaaaaaqirmijlzgBCAzdybvvaaaaaaaaaxcACBuzAsriAkstaaaaaaaaaaa",
"aaaaaaaaaaapDsqjsiufezcyAtavaaaaawawawduzCcqDBDlAzistaaaaaaaaaaa",
"aaaaaaaaaaaelikiroygABudhmaaabaawbvxawqpdyuuBuElirisqaaaaaaaaaaa",
"aaaaaaaaaaamrkiikougCzBAfmabbaaawawbabmdCAzuzuiliirstaaaaaaaaaaa",
"aaaaaaaaaaapjEjijoAgzzBjheaaaavaaaawvatpnnjAzADjlrjspaaaaaaaaaaa",
"aaaaaaaaaaapkjsjslAfABAngpxaaawxaavaaamtnyBACADrkkkstaaaaaaaaaaa",
"aaaaaaaaaaaephdpeeuguyuAhexvaavwaxawawmmAzCcAtmhfehhhaaaaaaaaaaa",
"aaaaaaaaaaaelsdiiozgyCzdgeaaabaaaaaaaaempCCzBtlrksiDmaaaaaaaaaaa",
"aaaaaaaaaaaqrrqkloAgzCzBcmaaaaawwbwwaamtcCzuuysiislrtaaaaaaaaaaa",
"aaaaaaaaaaaqskpisozguCutfeaabaaawaabaadppqCyBtrlsjrstaaaaaaaaaaa",
"aaaaaaaaaaaclrqlloBfCuCCmeaaaaaaaaaaaatmjBzCCBloirorpaaaaaaaaaaa",
"aaaaaaaaaaaqoolliouguzzCgebbwabaaaaaaadpCuBABuisioijpaaaaaaaaaaa",
"aaaaaaaaaaadliElrlzfzCBCghaaaxaaabavaamdzyzzztilrijreaaaaaaaaaaa",
"aaaaaaaaaaamorijroufzuAzgpaaaaawxaaawxddyuBBBBjrilkDtaaaaaaaaaaa",
"aaaaaaaaaaamlrkskozgAyBAgdabawaaaaaaawmmjyzyCAljlsrrcaaaaaaaaaaa",
"aaaaaaaaaaaqgfpfggzfBByBhdaaaawbaaabaaeeCuuyCufgfefghaaaaaaaaaaa",
"aaaaaaaaaaaeliprloAgyzjzgdxwabaaabbaaaeczACAjclrrDkDmaaaaaaaaaaa",
"aaaaaaaaaaaerlqDjougyCCChdvbaabaaaaaaammyBBzCtrjjDrkeaaaaaaaaaaa",
"aaaaaaaaaaatjidkjlAgzCCygdvaaxbawvaabwmtCCzyyusjsAkrmaaaaaaaaaaa",
"aaaaaaaaaaaedqetqtzgyCCzmeaaaaaaaaawaahmCzCzzyccqdcddaaaaaaaaaaa",
"aaaaaaaaaaaqliliroAgzCqmfeaavaaaabaawadedpCyzAljlllktaaaaaaaaaaa",
"aaaaaaaaaaacoiErroufzjCzteaaaaaaaavaaxmCBnCCjujikkistaaaaaaaaaaa",
"aaaaaaaaaaaekjisklugyqqmgqaawawaaawaaamcqpAzBukDsrrjdaaaaaaaaaaa",
"aaaaaaaaaaaqorjiElAgcuBCmpaaaawaaaaabatdCBCyCAjjksEDpaaaaaaaaaaa",
"aaaaaaaaaaaetqpctccgzAyBhpaaaaaavwawaaqtzzDuzctmtcqqqaaaaaaaaaaa",
"aaaaaaaaaaamrieDkoygACzBhtaaaaaavbaaawtqCyBBBAlrkDkstaaaaaaaaaaa",
"aaaaaaaaaaadlsqsroAfuCAzgdwaaavwbvaaaweeBuCuCzEijslimaaaaaaaaaaa",
"aaaaaaaaaaapEstlrougACCzfdvaaaavaaabaaqqCCCyyzrrssksdaaaaaaaaaaa",
"aaaaaaaaaaamffmgfgAfughCBevawbxaaxbbavdjjfBByugfffggmaaaaaaaaaaa",
"aaaaaaaaaaadiikrkoAgedyCnewaawbwxwbwaamBCBhpBusiiilshaaaaaaaaaaa",
"aaaaaaaaaaaqjkiikozgCBupuvabxabxvbxabbwxguCCyAjlrlljmaaaaaaaaaaa",
"aaaaaaaaaaaeissljoufApyxxxvbxaxxaxxxaxxxvxedBAjlsjjsmaaaaaaaaaaa",
"aaaaaaaaaaaqkkkrslugmaaaabvbavxvxvxxxvvaxxxxzAjkkisDeaaaaaaaaaaa",
"aaaaaaaaaaaycyFyuuyyxaaaxvwavaavabvaaaaaaaaxxyyFycyxaaaaaaaaaaaa",
"aaaaaaaaaaaaaaaaaaaaaaaaaaaaaaaaaaaaaaaaaaaaaaaaaaaaaaaaaaaaaaaa",
"aaaaaaaaaaaaaaaaaaaaaaaaaaaaaaaaaaaaaaaaaaaaaaaaaaaaaaaaaaaaaaaa",
"aaaaaaaaaaaaaaaaaaaaaaaaaaaaaaaaaaaaaaaaaaaaaaaaaaaaaaaaaaaaaaaa",
"aaaaaaaaaaaaaaaaaaaaaaaaaaaaaaaaaaaaaaaaaaaaaaaaaaaaaaaaaaaaaaaa",
"aaaaaaaaaaaaaaaaaaaaaaaaaaaaaaaaaaaaaaaaaaaaaaaaaaaaaaaaaaaaaaaa",
"aaaaaaaaaaaaaaaaaaaaaaaaaaaaaaaaaaaaaaaaaaaaaaaaaaaaaaaaaaaaaaaa",
"aaaaaaaaaaaaaaaaaaaaaaaaaaaaaaaaaaaaaaaaaaaaaaaaaaaaaaaaaaaaaaaa",
"aaaaaaaaaaaaaaaaaaaaaaaaaaaaaaaaaaaaaaaaaaaaaaaaaaaaaaaaaaaaaaaa",
"aaaaaaaaaaaaaaaaaaaaaaaaaaaaaaaaaaaaaaaaaaaaaaaaaaaaaaaaaaaaaaaa",
"aaaaaaaaaaaaaaaaaaaaaaaaaaaaaaaaaaaaaaaaaaaaaaaaaaaaaaaaaaaaaaaa",
"aaaaaaaaaaaaaaaaaaaaaaaaaaaaaaaaaaaaaaaaaaaaaaaaaaaaaaaaaaaaaaaa",
"aaaaaaaaaaaaaaaaaaaaaaaaaaaaaaaaaaaaaaaaaaaaaaaaaaaaaaaaaaaaaaaa",
"aaaaaaaaaaaaaaaaaaaaaaaaaaaaaaaaaaaaaaaaaaaaaaaaaaaaaaaaaaaaaaaa"
};
