/* XPM */
static char * konoha_gate_green_bg[] = {
"64 64 31 1",
"a c #6EA046",
"b c #0E1B21",
"c c #0D1921",
"d c #0D1A21",
"e c #0E1A21",
"f c #0E1921",
"g c #0F1921",
"h c #0B1A21",
"i c #7A381C",
"j c #7E391C",
"k c #AD4421",
"l c #956738",
"m c #60572D",
"n c #39331B",
"o c #0F1A21",
"p c #4B2B1B",
"q c #41391E",
"r c #483E20",
"s c #5D3C20",
"t c #352B17",
"u c #3C331B",
"v c #25251A",
"w c #3C351B",
"x c #362C18",
"y c #372E18",
"z c #494120",
"A c #534B25",
"B c #584C26",
"C c #483F20",
"D c #0A1720",
"E c #A1231E",
"aaaaaaaaaaaaaaaaaaaaaaaaaaaaaaaaaaaaaaaaaaaaaaaaaaaaaaaaaaaaaaaa",
"aaaaaaaaaaaaaaaaaaaaaaaaaaaaaaaaaaaaaaaaaaaaaaaaaaaaaaaaaaaaaaaa",
"aaaaaaaaaaaaaaaaaaaaaaaaaaaaaaaaaaaaaaaaaaaaaaaaaaaaaaaaaaaaaaaa",
"aaaaaaaaaaaaaaaaaaaaaaaaaaaaaaaaaaaaaaaaaaaaaaaaaaaaaaaaaaaaaaaa",
"aaaaaaaaaaaaaaaaaaaaaaaaaaaaaaaaaaaaaaaaaaaaaaaaaaaaaaaaaaaaaaaa",
"aaaaaaaaaaaaaaaaaaaaaaaaaaaaaaaaaaaaaaaaaaaaaaaaaaaaaaaaaaaaaaaa",
"aaaaaaaaaaaaaaaaaaaaaaaaaaaaaaaaaaaaaaaaaaaaaaaaaaaaaaaaaaaaaaaa",
"aaaaaaaaaaaaaaaaaaaaaaaaaaaaaaaaaaaaaaaaaaaaaaaaaaaaaaaaaaaaaaaa",
"aaaaaaaaaaaabcdccecddfdcefedcdcgffeffefedhcdcfdcfdddaaaaaaaaaaaa",
"aaaaaaaaaaaafijikglllmlllmlmlllmlllllmllllllmnokjiidaaaaaaaaaaaa",
"aaaaaaaaaaaagpijkgllllllllllmmlmlllmllmmmmmllqeijppfaaaaaaaaaaaa",
"aaaaaaaaaaaaopijkellllllllllmmlmlllmllmmmmmllrojippfaaaaaaaaaaaa",
"aaaaaaaaaaaagisppococecdfeccdcccffffcecedecceebikjifaaaaaaaaaaaa",
"aaaaaaaaaaaaoggfgottbuunuuvuuuwuuvvvnunnvnnvxydeedecaaaaaaaaaaaa",
"aaaaaaaaaaaaokseiotxbzwwuzwwABCwwzAvwAvvwwwnxybigkkdaaaaaaaaaaaa",
"aaaaaaaaaaaafjpdpotxrmnCzuumrrmzBuwuBCrqAuACxycpckkgaaaaaaaaaaaa",
"aaaaaaaaaaaadipdpctxrmuCzuumCCmzBuwuACrrAuACxyhpekkfaaaaaaaaaaaa",
"aaaaaaaaaaaagipeiftxBACzzBCCrzmwmBACCzBBrBBAtyhigiidaaaaaaaaaaaa",
"aaaaaaaaaaaafjpdiotyAzrwwBAnzzmwAAAnCAwnCzCBxyhpdiioaaaaaaaaaaaa",
"aaaaaaaaaaaaffcfeetxAzrwwmAnrrmuAqqArmwnCArAtyhbcDcdaaaaaaaaaaaa",
"aaaaaaaaaaaafjjjketxzCCABmACrrmCAqqACAunmmBAtygkjjjcaaaaaaaaaaaa",
"aaaaaaaaaaaaeijjkgtxzrrAAmACrzmrAqqArAwummAAtyhkiiifaaaaaaaaaaaa",
"aaaaaaaaaaaaepijkdtxfgfgfggffcgfggfggogfggggtyhkkkkfaaaaaaaaaaaa",
"aaaaaaaaaaaackjjiftxsssssssssssssssssssssssstyejiiicaaaaaaaaaaaa",
"aaaaaaaaaaaadijkkotxgoefogfdfgffogohfdfgdfeoxycppppdaaaaaaaaaaaa",
"aaaaaaaaaaaaogofeotxCwwwwCCCwwwuurrrwwdDEoBwxygegdgbaaaaaaaaaaaa",
"aaaaaaaaaaaacbhdhdttrnnuwrqqwqvttnnnwxppioAwxyfvdvveaaaaaaaaaaaa",
"aaaaaaaaaaaadipckdtyCmznnmmwnqcehohhzcEEowAwtyfigkkfaaaaaaaaaaaa",
"aaaaaaaaaaaaokshigtxrmzzzmuwfDEEEEEEgEoDwwmuxyeiokkdaaaaaaaaaaaa",
"aaaaaaaaaaaaokseiotyumAmmAwfEEEbffgcgeuyAwmutyhpekkfaaaaaaaaaaaa",
"aaaaaaaaaaaaoipcpftxuArAAAcEEEfuwrCruuunCCmwxyoieppcaaaaaaaaaaaa",
"aaaaaaaaaaaafjpdpotynACAAzbEEEonnqqquwnyrCmwtygioppfaaaaaaaaaaaa",
"aaaaaaaaaaaagchhegtyBACABzfEocnfdchcwmzzCrmwxybhhchbaaaaaaaaaaaa",
"aaaaaaaaaaaaokkkkotyCACAAfEEodgEEEEEfrzzCAAwxyokkkkgaaaaaaaaaaaa",
"aaaaaaaaaaaabikkiotyAACAAgEebDEEfgDEEonyCrAwxygijkkeaaaaaaaaaaaa",
"aaaaaaaaaaaaekjiiotxAArAAfEgeDEgfuqcEcrrrrmCtyekkiifaaaaaaaaaaaa",
"aaaaaaaaaaaafkkksetxAzzqrgEvgDEiinqcEfrrArmrtyojjsscaaaaaaaaaaaa",
"aaaaaaaaaaaabkkkpgtxArAohEEEfDEEEnqcEfrqArmzxyoijppoaaaaaaaaaaaa",
"aaaaaaaaaaaaoeooogtyBCrbdEgEfeoeecDEEbrrABACxyeeghooaaaaaaaaaaaa",
"aaaaaaaaaaaaekseigtyuAoEEEgoEEEEEEEEgAABACCCtyoigiibaaaaaaaaaaaa",
"aaaaaaaaaaaabksdpotxCrcoooEEEEEEEEEgAAmmACBCxygkeppeaaaaaaaaaaaa",
"aaaaaaaaaaaagkseiotyBzqqqwDDDDDDDDDwuAytABBrtydjfijeaaaaaaaaaaaa",
"aaaaaaaaaaaabkshiotyAruwqneddbegfgDwwAuuAAACxydifiicaaaaaaaaaaaa",
"aaaaaaaaaaaaoipdigtyrrBmmAwBwwuABuwwBAwymrCrxybiokkbaaaaaaaaaaaa",
"aaaaaaaaaaaaofgggbtxdofgoffefdoggfogeogedgdotxegfcfeaaaaaaaaaaaa",
"aaaaaaaaaaaaoiijkftxsssssssssssssssssssssssstybiiiioaaaaaaaaaaaa",
"aaaaaaaaaaaaopijkotxDDDDDDDDDDDDDDDDDDDDDDDDxyfppjigaaaaaaaaaaaa",
"aaaaaaaaaaaaepijkotxgggdgcfccbcfggeofffdgdcetybppiieaaaaaaaaaaaa",
"aaaaaaaaaaaabikkietyCumACyCCCCCwArCCmzzAwmCCxybkjiidaaaaaaaaaaaa",
"aaaaaaaaaaaaopijjgtxAwmAzCACCCmwAnnCmAAAwAACxydpjiieaaaaaaaaaaaa",
"aaaaaaaaaaaaohoebctxAwmAzrAwrCmwArrCmCmmwAACtyfceccfaaaaaaaaaaaa",
"aaaaaaaaaaaagkjikotyzqCzzqAwrrrwArrrCCmmwAzwxyfifkkfaaaaaaaaaaaa",
"aaaaaaaaaaaaekjikgtyzqCCCqBwrrznBrrqrCBBuAzntyeiekkfaaaaaaaaaaaa",
"aaaaaaaaaaaaokjijotyzqzwwzAuuwBvmrrwCCCzwzzvxyopgkkbaaaaaaaaaaaa",
"aaaaaaaaaaaaeispiftxvBnnurrruuwvryyArnuyznrvtybioiifaaaaaaaaaaaa",
"aaaaaaaaaaaacpiiiotxvunuuuuuwwqvryyunuuunnzvxyoigiieaaaaaaaaaaaa",
"aaaaaaaaaaaagDfceefccfcdgffcgccccfdcffococeggcfcfffdaaaaaaaaaaaa",
"aaaaaaaaaaaaaaaaaaaaaaaaaaaaaaaaaaaaaaaaaaaaaaaaaaaaaaaaaaaaaaaa",
"aaaaaaaaaaaaaaaaaaaaaaaaaaaaaaaaaaaaaaaaaaaaaaaaaaaaaaaaaaaaaaaa",
"aaaaaaaaaaaaaaaaaaaaaaaaaaaaaaaaaaaaaaaaaaaaaaaaaaaaaaaaaaaaaaaa",
"aaaaaaaaaaaaaaaaaaaaaaaaaaaaaaaaaaaaaaaaaaaaaaaaaaaaaaaaaaaaaaaa",
"aaaaaaaaaaaaaaaaaaaaaaaaaaaaaaaaaaaaaaaaaaaaaaaaaaaaaaaaaaaaaaaa",
"aaaaaaaaaaaaaaaaaaaaaaaaaaaaaaaaaaaaaaaaaaaaaaaaaaaaaaaaaaaaaaaa",
"aaaaaaaaaaaaaaaaaaaaaaaaaaaaaaaaaaaaaaaaaaaaaaaaaaaaaaaaaaaaaaaa"
};
