/* XPM */
static char * tree_obstacle_green_bg[] = {
"64 64 32 1",
"a c #6EA046",
"b c #011A25",
"c c #01232A",
"d c #01593D",
"e c #07663D",
"f c #000A24",
"g c #014838",
"h c #07743D",
"i c #023831",
"j c #09071B",
"k c #196942",
"l c #035C40",
"m c #13161D",
"n c #3C2624",
"o c #30191B",
"p c #2F5B3D",
"q c #4F2A24",
"r c #6D382A",
"s c #914529",
"t c #41211F",
"u c #843E2C",
"v c #AE5628",
"w c #A54D26",
"x c #BD652B",
"y c #CD752F",
"z c #DC9637",
"A c #D88632",
"B c #C76A2B",
"C c #5B3128",
"D c #DD9F3B",
"E c #9C5133",
"F c #7E4432",
"aaaaaaaaaaaaaaaaaaaaaaaaaaaaaaaaaaaaaaaaaaaaaaaaaaaaaaaaaaaaaaaa",
"aaaaaaaaaaaaaaaaaaaaaaaaaaaaaaaaaaaaaaaaaaaaaaaaaaaaaaaaaaaaaaaa",
"aaaaaaaaaaaaaaaaaaaaaaaaaaaaaaaaaaaaaaaaaaaaaaaaaaaaaaaaaaaaaaaa",
"aaaaaaaaaaaaaaaaaaaaaaaaaaaaaaaaaaaaaaaaaaaaaaaaaaaaaaaaaaaaaaaa",
"aaaaaaaaaaaaaaaaaaaaaaaaaaaaaaaaaaaaaaaaaaaaaaaaaaaaaaaaaaaaaaaa",
"aaaaaaaaaaaaaaaaaaaaaaaaaaaaaaaaaaaaaaaaaaaaaaaaaaaaaaaaaaaaaaaa",
"aaaaaaaaaaaaaaaaaaaaaaaaaaaaabbbbcaaaaaaaaaaaaaaaaaaaaaaaaaaaaaa",
"aaaaaaaaaaaaaaaaaaaaaaaaaabbaaaaaaaccaaaaaaaaaaaaaaaaaaaaaaaaaaa",
"aaaaaaaaaaaaaaaaaaaaaacbbbdeaaaaaaacfaaccfaaaaaaaaaaaaaaaaaaaaaa",
"aaaaaaaaaaaaaaaaaaaaabaaagaaaaaaaaahafaaahcaaaaaaaaaaaaaaaaaaaaa",
"aaaaaaaaaaaaaaaaaaaabaaaaaaaaaaaaaaaaaaaaaacaaaaaaaaaaaaaaaaaaaa",
"aaaaaaaaaaaaaaaaaaccbaaaaaaaaaaaaaaaaaaaaaaabbaaaaaaaaaaaaaaaaaa",
"aaaaaaaaaaaaaaaaafaaaaaaaaaaaaaaaaaaaaaaaaaaaacaaaaaaaaaaaaaaaaa",
"aaaaaaaaaaaaaaaaagaaaaaaaaaaaaaaaaaaaaaaaaaaaaacaaaaaaaaaaaaaaaa",
"aaaaaaaaaaaaaaaaaeaaaaaaaaaaaaaaaaaaaaaaaaaaaaabaaaaaaaaaaaaaaaa",
"aaaaaaaaaaaaaaacgaaaaaaaaaaaaaaaaaaaaaaaaaaaaaacbaaaaaaaaaaaaaaa",
"aaaaaaaaaaaaabiaaaaaaaaaaaaaaaaaaaaaaaaaaaaaaaaaaicaaaaaaaaaaaaa",
"aaaaaaaaaaaafehaaaaaaaaaaaaaaaaaaaaaaaaaaaaaaaaaaahbaaaaaaaaaaaa",
"aaaaaaaaaaaajaaaaaaahaaaaaaaaaaaaaaaaaaaaaaaaaaaeaacaaaaaaaaaaaa",
"aaaaaaaaaaaabaaehaaaaaaaaaaaaaaaaaaaaaaaaaehaaaaaaaabaaaaaaaaaaa",
"aaaaaaaaaaaabaaaaaaaaaaaaaaaaaaaaaaaaaaaaaaaaaaaaaaabaaaaaaaaaaa",
"aaaaaaaaaaaabaaaaaaaaaaaaaaaaaaaaaaaaaaaaaaaaaaaaaabbaaaaaaaaaaa",
"aaaaaaaaaaaagdhaaaaaaaaaaaaaaaaaaaaaaaaaaaaaaaaaaagbaaaaaaaaaaaa",
"aaaaaaaaaaabaegaaaaaaaaaaaahaaaaaaaaaaaaaaaaaaaaaaidbaaaaaaaaaaa",
"aaaaaaaaaabeaaddaaaaaaaaaaaaaaaaaaaaaaaaaaaaaaaaggkddgaaaaaaaaaa",
"aaaaaaaaaabadeaaaaaaaaaaaaaaaaaaaaaaaaaaaaaaaaaaaddddbaaaaaaaaaa",
"aaaaaaaaaabedaaaaaaaaahaaaaaaaaaaaaaaaaaaaaaaaaaaaaidbaaaaaaaaaa",
"aaaaaaaaaaagdaaaaeaaaaaaaaaaaaaaaaaaaaaaehaaaaaaaaahdcaaaaaaaaaa",
"aaaaaaaaaaacgaaaaaeeaadaaadaaaaaaaaaaaaadgaaaaaaaaaadaaaaaaaaaaa",
"aaaaaaaaaaaabiaaaaaaaaaaadddaaaaaadeeaaadgaaaaaaeaaadaaaaaaaaaaa",
"aaaaaaaaaaabdddeaheaaaaddaaeaaaaaadadhadaaeaaadadaddbaaaaaaaaaaa",
"aaaaaaaaaaabdddddeaaaaaaaaaadgdaadaaaaaaaaaadgadddiibaaaaaaaaaaa",
"aaaaaaaaaaaagidddaaaaagaaaaaaaaadhaaaaaaaaaaaaaadaddbaaaaaaaaaaa",
"aaaaaaaaaaaacaeddaaaadaaaaaaaahdeaaaaeaaaaaaadeadaddbaaaaaaaaaaa",
"aaaaaaaaaaaafldbbdddddaaaaagaaadaadaaaaaaadaaaiddddbaaaaaaaaaaaa",
"aaaaaaaaaaaaabbbdddddddaaagaaaadaaadeaaaaaddaaeddbbaaaaaaaaaaaaa",
"aaaaaaaaaaaaaaabdcaaddgddddaaaddeaaddadaadddddddbaaaaaaaaaaaaaaa",
"aaaaaaaaaaaaaaaabgedddcddddedddddddgbaddddddddddaaaaaaaaaaaaaaaa",
"aaaaaaaaaaaaaaaaabddddbdddbggidddimbbddddddcbldfaaaaaaaaaaaaaaaa",
"aaaaaaaaaaaaaaaaaabbbbbddbbnbbcdcboomlddcddgbapaaaaaaaaaaaaaaaaa",
"aaaaaaaaaaaaaaaaaaaaaaabbbbnoobboqorsbbbbbbbaaaaaaaaaaaaaaaaaaaa",
"aaaaaaaaaaaaaaaaaaaaaaaaabbostsosuorujbcaaaaaaaaaaaaaaaaaaaaaaaa",
"aaaaaaaaaaaaaaaaaaaaaaaaaabqsqsrssrrvfaaaaaaaaaaaaaaaaaaaaaaaaaa",
"aaaaaaaaaaaaaaaaaaaaaaaaaabrvqwxvsvyskaaaaaaaaaaaaaaaaaaaaaaaaaa",
"aaaaaaaaaaaaaaaaaaaaaaaaaaarwrzsvvyxraaaaaaaaaaaaaaaaaaaaaaaaaaa",
"aaaaaaaaaaaaaaaaaaaaaaaaaaarsvAvAABqraaaaaaaaaaaaaaaaaaaaaaaaaaa",
"aaaaaaaaaaaaaaaaaaaaaaaaaairsBzxAAwqCaaaaaaaaaaaaaaaaaaaaaaaaaaa",
"aaaaaaaaaaaaaaaaaaaaaaaaaacrrBDBywwrqaaaaaaaaaaaaaaaaaaaaaaaaaaa",
"aaaaaaaaaaaaaaaaaaaaaaaaaabvCAAzvwsvrbaaaaaaaaaaaaaaaaaaaaaaaaaa",
"aaaaaaaaaaaaaaaaaaaaaaaaaabvryyDxvwCrbaaaaaaaaaaaaaaaaaaaaaaaaaa",
"aaaaaaaaaaaaaaaaaaaaaaaaaiqvrByABvyruCiaaaaaaaaaaaaaaaaaaaaaaaaa",
"aaaaaaaaaaaaaaaaaaaaaaacbbrrsyAAvvzrqvrbeaaaaaaaaaaaaaaaaaaaaaaa",
"aaaaaaaaaaaaaaaaaaaaaaibsvsrByAssvysorrwbleaaaaaaaaaaaaaaaaaaaaa",
"aaaaaaaaaaaaaaaaaaaaadbrrrCrwzvrowBDsosqrbgeaaaaaaaaaaaaaaaaaaaa",
"aaaaaaaaaaaaaaaaaaaaaedbbbbvyxmbmsByvrbbbbdaaaaaaaaaaaaaaaaaaaaa",
"aaaaaaaaaaaaaaaaaaaaaaaaadbErwbbbmsvArbdgdaaaaaaaaaaaaaaaaaaaaaa",
"aaaaaaaaaaaaaaaaaaaaaaaaaeFsqmbdddbmorbeeaaaaaaaaaaaaaaaaaaaaaaa",
"aaaaaaaaaaaaaaaaaaaaaaaaaadbbdaaaacbbedaaaaaaaaaaaaaaaaaaaaaaaaa",
"aaaaaaaaaaaaaaaaaaaaaaaaaaaaaaaaaaaaaaaaaaaaaaaaaaaaaaaaaaaaaaaa",
"aaaaaaaaaaaaaaaaaaaaaaaaaaaaaaaaaaaaaaaaaaaaaaaaaaaaaaaaaaaaaaaa",
"aaaaaaaaaaaaaaaaaaaaaaaaaaaaaaaaaaaaaaaaaaaaaaaaaaaaaaaaaaaaaaaa",
"aaaaaaaaaaaaaaaaaaaaaaaaaaaaaaaaaaaaaaaaaaaaaaaaaaaaaaaaaaaaaaaa",
"aaaaaaaaaaaaaaaaaaaaaaaaaaaaaaaaaaaaaaaaaaaaaaaaaaaaaaaaaaaaaaaa",
"aaaaaaaaaaaaaaaaaaaaaaaaaaaaaaaaaaaaaaaaaaaaaaaaaaaaaaaaaaaaaaaa"
};
